<?xml version="1.0" encoding="UTF-8" standalone="no"?>
<svg
   xmlns:dc="http://purl.org/dc/elements/1.1/"
   xmlns:cc="http://creativecommons.org/ns#"
   xmlns:rdf="http://www.w3.org/1999/02/22-rdf-syntax-ns#"
   xmlns:svg="http://www.w3.org/2000/svg"
   xmlns="http://www.w3.org/2000/svg"
   xmlns:sodipodi="http://sodipodi.sourceforge.net/DTD/sodipodi-0.dtd"
   xmlns:inkscape="http://www.inkscape.org/namespaces/inkscape"
   version="1.1"
   width="24"
   height="24"
   viewBox="0 0 24 24"
   id="svg865"
   sodipodi:docname="vnc-02.svg"
   inkscape:version="0.92.2 (5c3e80d, 2017-08-06)">
  <metadata
     id="metadata871">
    <rdf:RDF>
      <cc:Work
         rdf:about="">
        <dc:format>image/svg+xml</dc:format>
        <dc:type
           rdf:resource="http://purl.org/dc/dcmitype/StillImage" />
        <dc:title></dc:title>
      </cc:Work>
    </rdf:RDF>
  </metadata>
  <defs
     id="defs869" />
  <sodipodi:namedview
     pagecolor="#ffffff"
     bordercolor="#666666"
     borderopacity="1"
     objecttolerance="10"
     gridtolerance="10"
     guidetolerance="10"
     inkscape:pageopacity="0"
     inkscape:pageshadow="2"
     inkscape:window-width="1276"
     inkscape:window-height="2121"
     id="namedview867"
     showgrid="false"
     inkscape:zoom="28.082021"
     inkscape:cx="12"
     inkscape:cy="16.00626"
     inkscape:window-x="3200"
     inkscape:window-y="37"
     inkscape:window-maximized="0"
     inkscape:current-layer="svg865" />
  <path
     d="M12,0C8.96,0 6.21,1.23 4.22,3.22L5.63,4.63C7.26,3 9.5,2 12,2C14.5,2 16.74,3 18.36,4.64L19.77,3.23C17.79,1.23 15.04,0 12,0M7.05,6.05L8.46,7.46C9.37,6.56 10.62,6 12,6C13.38,6 14.63,6.56 15.54,7.46L16.95,6.05C15.68,4.78 13.93,4 12,4C10.07,4 8.32,4.78 7.05,6.05M12,15A2,2 0 0,1 10,13A2,2 0 0,1 12,11A2,2 0 0,1 14,13A2,2 0 0,1 12,15M15,9H9A1,1 0 0,0 8,10V22A1,1 0 0,0 9,23H15A1,1 0 0,0 16,22V10A1,1 0 0,0 15,9Z"
     id="path863"
     style="fill-opacity:1;fill:#000000" />
  <path
     style="fill:#000000;fill-opacity:1;fill-rule:nonzero;stroke-width:0.01251956"
     d="M 7.7541353,6.7488146 7.0551462,6.0497421 7.2033165,5.9116572 C 8.375285,4.8194599 9.764243,4.1927424 11.364006,4.034295 c 0.304594,-0.030168 0.972402,-0.030168 1.276996,0 1.597783,0.1582513 3.03217,0.8090729 4.172183,1.8930367 l 0.126391,0.1201765 -0.69934,0.6994231 -0.699339,0.6994231 -0.09862,-0.09 C 14.70138,6.6802325 13.850194,6.2500607 12.912363,6.07779 12.579956,6.0167301 12.41048,6.0027296 12.002504,6.0026265 11.500692,6.0025 11.190588,6.0398584 10.744288,6.1542066 9.9425951,6.3596109 9.146423,6.7985305 8.5529713,7.3622515 c -0.049584,0.0471 -0.092334,0.085636 -0.095,0.085636 -0.00267,0 -0.3193925,-0.3145826 -0.703836,-0.6990729 z"
     id="path932"
     inkscape:connector-curvature="0" />
  <path
     style="fill:#1f80be;fill-opacity:1;fill-rule:nonzero;stroke-width:0.01251956"
     d="M 7.7541353,6.7488146 7.0551462,6.0497421 7.2033165,5.911202 C 8.283383,4.901333 9.580398,4.2782507 11.025978,4.0748064 c 0.366476,-0.051576 0.535356,-0.062346 0.976526,-0.062277 0.452565,7.1e-5 0.678854,0.016051 1.064163,0.07515 1.242895,0.1906343 2.417989,0.7176475 3.386541,1.5188163 0.137864,0.114039 0.482003,0.4270359 0.482003,0.4383857 0,0.00394 -0.314084,0.3210041 -0.697965,0.7045924 L 15.53928,7.4469063 15.414085,7.3326082 C 14.385076,6.3931693 13.049937,5.9187541 11.683255,6.0069323 10.527261,6.0815171 9.4358345,6.5484279 8.5891434,7.3305892 8.5193069,7.3951031 8.4601332,7.4478873 8.4576462,7.4478873 c -0.00249,0 -0.319067,-0.3145826 -0.7035109,-0.6990727 z"
     id="path934"
     inkscape:connector-curvature="0" />
  <path
     style="fill:#666666;fill-opacity:1;fill-rule:nonzero;stroke-width:0.01251956"
     d="M 18.243368,4.5176347 C 18.181471,4.4551553 18.049139,4.331544 17.949296,4.242943 16.607986,3.0526657 14.972983,2.3065618 13.191862,2.0719747 12.465347,1.9762871 11.647086,1.9717603 10.913302,2.0593689 9.3289069,2.2485348 7.8615721,2.8364607 6.5877934,3.7924967 6.2700784,4.030958 6.0051549,4.2567283 5.752016,4.5047542 L 5.6298536,4.624449 4.9291695,3.9238486 4.2284854,3.2232483 4.2625995,3.1868886 C 4.3318355,3.1130951 4.6710986,2.8007256 4.8319515,2.6626697 5.5472388,2.0487568 6.2981774,1.5525176 7.1386541,1.1383421 8.4716918,0.4814394 9.8683467,0.11391962 11.372912,0.02412734 c 0.275019,-0.01641312 0.987221,-0.01650559 1.25557,-1.6302e-4 0.727898,0.04432927 1.377648,0.14342988 2.056375,0.31364054 1.846877,0.4631587 3.543909,1.40722164 4.91081,2.73189344 l 0.162705,0.1576788 -0.701233,0.7020283 -0.701233,0.7020282 z"
     id="path936"
     inkscape:connector-curvature="0" />
  <path
     style="fill:#0e0ef4;fill-opacity:1;fill-rule:nonzero;stroke-width:0.01251956"
     d="M 7.7593655,6.7415253 7.0656074,6.0476828 7.1647286,5.9549813 C 7.7217653,5.4340222 8.2464424,5.0651943 8.885133,4.745603 9.4369122,4.4695009 9.9804878,4.2816399 10.59195,4.1557228 c 0.259273,-0.053391 0.664094,-0.1094509 0.916031,-0.1268514 0.273894,-0.018917 0.972216,-0.00776 1.220657,0.019504 1.554047,0.1705348 2.952135,0.8166528 4.087637,1.8890763 L 16.928951,6.0438685 16.232787,6.7409333 15.536622,7.437998 15.414631,7.3271876 C 14.687317,6.6665328 13.804679,6.2311116 12.856716,6.0653214 12.537218,6.0094441 12.286218,5.9921495 11.902347,5.9995627 11.188089,6.0133561 10.592641,6.1451563 9.943036,6.4332488 9.431262,6.6602148 9.0164871,6.937172 8.5283255,7.3778915 c -0.034429,0.031083 -0.065434,0.056731 -0.0689,0.056995 -0.00347,2.641e-4 -0.3184932,-0.3117481 -0.70006,-0.6933612 z"
     id="path1009"
     inkscape:connector-curvature="0" />
  <path
     style="fill:#0e0ef4;fill-opacity:1;fill-rule:nonzero;stroke-width:0.0183576"
     d="M 4.9298626,3.9103854 4.2355012,3.2158435 4.5214965,2.9529037 C 4.6787939,2.808287 4.8074918,2.683002 4.8074918,2.6744927 c 0,-0.00851 0.0062,-0.013505 0.013768,-0.011102 0.014032,0.00445 0.4286763,-0.3222126 0.5222167,-0.4114139 0.028302,-0.026989 0.051733,-0.043511 0.052069,-0.036715 3.36e-4,0.0068 0.017789,-0.0083 0.038785,-0.033538 0.020996,-0.025242 0.039308,-0.042011 0.040694,-0.037265 0.00457,0.015632 0.1769172,-0.1109347 0.1769172,-0.1299188 0,-0.010207 0.00775,-0.013767 0.017229,-0.00791 0.00948,0.00586 0.025747,-0.00398 0.036157,-0.021864 0.01041,-0.017882 0.019179,-0.026075 0.019486,-0.018208 6.955e-4,0.017824 0.3314327,-0.2022507 0.3639111,-0.2421493 0.013055,-0.016038 0.027599,-0.026928 0.032318,-0.024199 0.016153,0.00934 0.1183419,-0.05177 0.1183419,-0.070768 0,-0.010433 0.00796,-0.01405 0.017688,-0.00804 0.00973,0.00601 0.034511,-0.00589 0.055073,-0.026453 0.020562,-0.020562 0.04358,-0.037317 0.051153,-0.037235 0.00757,8.26e-5 0.026745,-0.010244 0.042606,-0.022947 0.015861,-0.012703 0.040644,-0.025616 0.055073,-0.028696 0.014429,-0.00308 0.036561,-0.019114 0.049182,-0.035634 0.012621,-0.01652 0.022947,-0.024159 0.022947,-0.016976 0,0.00718 0.033044,-0.0038 0.07343,-0.024401 0.040387,-0.020604 0.07343,-0.046931 0.07343,-0.058506 0,-0.011574 0.00512,-0.015929 0.011367,-0.00968 0.015716,0.015716 0.2639968,-0.1113085 0.2639968,-0.1350654 0,-0.010566 0.00759,-0.014516 0.016878,-0.00878 0.00928,0.00574 0.028952,-0.00164 0.043709,-0.0164 0.014757,-0.014757 0.031945,-0.021717 0.038195,-0.015467 0.00625,0.00625 0.011364,0.00124 0.011364,-0.011136 0,-0.012375 0.00826,-0.017395 0.018358,-0.011155 0.010097,0.00624 0.018358,0.00211 0.018358,-0.00918 0,-0.011288 0.00826,-0.015419 0.018358,-0.00918 0.010097,0.00624 0.018358,0.00211 0.018358,-0.00918 0,-0.011288 0.00826,-0.015419 0.018358,-0.00918 0.010097,0.00624 0.018358,0.00211 0.018358,-0.00918 0,-0.011288 0.00826,-0.015419 0.018358,-0.00918 0.010097,0.00624 0.018358,0.00211 0.018358,-0.00918 0,-0.011288 0.00733,-0.015992 0.016299,-0.010451 0.018966,0.011722 0.37186,-0.15096142 0.3918768,-0.18065427 0.00742,-0.0110038 0.013614,-0.0142409 0.013768,-0.007194 4.35e-4,0.0198155 0.1104266,-0.0232432 0.1104266,-0.0432289 0,-0.009705 0.00721,-0.0131909 0.016016,-0.007747 0.018802,0.0116203 0.2439217,-0.0808474 0.2636565,-0.1082966 0.00742,-0.0103177 0.013614,-0.0127389 0.013768,-0.00538 3.451e-4,0.0163929 0.2641587,-0.0789552 0.2722418,-0.0983939 0.00318,-0.007639 0.017633,-0.009339 0.032126,-0.003778 0.014492,0.005561 0.02635,4.7932e-4 0.02635,-0.0112935 0,-0.0117728 0.0069,-0.017142 0.015329,-0.0119315 0.020295,0.012543 0.1498898,-0.0276833 0.1498898,-0.0465259 0,-0.008086 0.012391,-0.009946 0.027536,-0.004135 0.015145,0.005812 0.027536,0.001681 0.027536,-0.009179 0,-0.01086 0.012391,-0.0149905 0.027536,-0.009179 0.015145,0.005812 0.027536,0.001681 0.027536,-0.009179 0,-0.01086 0.012391,-0.0149905 0.027536,-0.009179 0.015145,0.005812 0.027536,0.00234 0.027536,-0.007715 0,-0.0100551 0.010326,-0.0174961 0.022947,-0.0165357 0.046689,0.003553 0.160629,-0.0288404 0.160629,-0.0456674 0,-0.009569 0.00757,-0.0127209 0.016817,-0.007004 0.00925,0.005716 0.040228,9.6561e-4 0.068841,-0.0105573 0.028613,-0.011523 0.07373,-0.0237931 0.1002582,-0.027267 0.026529,-0.003474 0.071964,-0.0160914 0.1009669,-0.0280389 0.029003,-0.0119475 0.059798,-0.0200989 0.068433,-0.0181143 0.00864,0.001985 0.025917,-0.004871 0.038404,-0.0152339 0.012487,-0.0103633 0.02759,-0.0139564 0.033562,-0.007985 0.00597,0.005972 0.021588,0.004226 0.034703,-0.00388 0.013115,-0.008106 0.036382,-0.0157723 0.051705,-0.0170372 0.052167,-0.004306 0.1743858,-0.0302742 0.1910973,-0.0406025 0.00916,-0.005662 0.044509,-0.0127938 0.078549,-0.0158483 0.034041,-0.003055 0.072033,-0.0118212 0.084428,-0.0194814 0.012394,-0.00766 0.034937,-0.0144532 0.050094,-0.0150954 0.075237,-0.003188 0.2401746,-0.033675 0.2476536,-0.0457762 0.0047,-0.007563 0.02838,-0.00995 0.05268,-0.005305 0.0243,0.004645 0.04954,-2.3241e-4 0.0561,-0.010839 0.0066,-0.0106065 0.02405,-0.0146311 0.03887,-0.008943 0.01482,0.005688 0.04141,0.004336 0.05907,-0.003005 0.01767,-0.00734 0.05278,-0.0157867 0.07802,-0.0187702 0.02524,-0.002983 0.07894,-0.009798 0.119324,-0.0151427 0.552728,-0.07315172 0.981752,-0.10101318 1.551218,-0.1007386 0.596991,2.8785e-4 0.980314,0.02518148 1.551217,0.1007386 0.04039,0.005345 0.09408,0.0121592 0.119324,0.0151427 0.02524,0.002983 0.06035,0.01143 0.07802,0.0187702 0.01767,0.00734 0.04425,0.008692 0.05907,0.003005 0.01482,-0.005688 0.03213,-0.001953 0.03847,0.008299 0.0063,0.0102519 0.02932,0.0169238 0.05107,0.0148263 0.02175,-0.002097 0.05278,0.001956 0.06894,0.009008 0.01616,0.007052 0.03682,0.011099 0.04589,0.008994 0.0091,-0.002105 0.0289,0.001068 0.04404,0.007052 0.05371,0.0212218 0.223595,0.050147 0.238914,0.0406792 0.0086,-0.005287 0.02099,-8.2261e-4 0.02763,0.009922 0.0066,0.0107445 0.0258,0.0178706 0.04257,0.0158357 0.01678,-0.002035 0.04289,0.001398 0.05804,0.007629 0.03441,0.0141552 0.399992,0.10586573 0.449761,0.11282724 0.02019,0.002825 0.04911,0.0102868 0.06425,0.0165827 0.07114,0.0295733 0.209786,0.0641519 0.223425,0.0557224 0.0084,-0.005175 0.01522,-0.002622 0.01522,0.005672 0,0.0138836 0.224195,0.0880442 0.266185,0.0880501 0.0101,1.43e-6 0.02249,0.004972 0.02754,0.0110454 0.01356,0.0163142 0.262386,0.0993296 0.289132,0.096463 0.01262,-0.001353 0.02295,0.004227 0.02295,0.0123998 0,0.0140253 0.09568,0.0423281 0.121556,0.0359576 0.0066,-0.001628 0.01708,0.004394 0.02325,0.0133806 0.01378,0.0200511 0.500474,0.21807582 0.520244,0.21167641 0.0078,-0.002524 0.01418,0.003031 0.01418,0.0123445 0,0.0171039 0.125967,0.0672243 0.15145,0.0602595 0.0076,-0.00207 0.01377,0.00499 0.01377,0.015678 0,0.010692 0.0083,0.014336 0.01836,0.0081 0.0101,-0.00624 0.01836,-0.00211 0.01836,0.00918 0,0.011288 0.0076,0.015855 0.01679,0.010148 0.0092,-0.00571 0.01956,-0.00305 0.02295,0.00591 0.0083,0.021966 0.419128,0.2266249 0.419484,0.2089727 1.47e-4,-0.00766 0.0064,-0.00495 0.01377,0.00603 0.01994,0.029485 0.187837,0.1238121 0.188165,0.1057115 1.47e-4,-0.00853 0.0064,-0.00613 0.01377,0.00533 0.01777,0.02746 0.208931,0.1405051 0.238368,0.1409586 0.01262,1.944e-4 0.02295,0.00663 0.02295,0.014304 0,0.014948 0.206889,0.1382416 0.217374,0.1295416 0.0034,-0.00286 0.01583,0.00631 0.02754,0.020383 0.02974,0.035755 0.403736,0.2802607 0.420553,0.2749423 0.0076,-0.00239 0.01377,0.00247 0.01377,0.010821 0,0.017445 0.211308,0.1740496 0.228953,0.1696821 0.0064,-0.00159 0.02749,0.016057 0.04679,0.039218 0.01931,0.02316 0.03539,0.037183 0.03572,0.031162 3.36e-4,-0.00602 0.03503,0.020828 0.0771,0.059665 0.04207,0.038837 0.08034,0.066762 0.08505,0.062054 0.0047,-0.00471 0.02464,0.011892 0.04431,0.036888 0.01966,0.024996 0.04335,0.04075 0.05264,0.035009 0.0093,-0.00574 0.01689,-0.00258 0.01689,0.00703 0,0.015166 0.29254,0.2726375 0.322172,0.2835516 0.006,0.00223 0.132233,0.1212553 0.280407,0.2645046 L 19.7414,3.2258223 19.048675,3.9196602 18.355949,4.613498 18.249586,4.5082456 c -0.0585,-0.057889 -0.115498,-0.1052522 -0.126665,-0.1052522 -0.01117,0 -0.03327,-0.019792 -0.04912,-0.043982 -0.06161,-0.094025 -0.817423,-0.7086796 -0.871434,-0.7086796 -0.01202,0 -0.02185,-0.00713 -0.02185,-0.01585 0,-0.018135 -0.405679,-0.2902732 -0.418731,-0.2808935 -0.0047,0.00339 -0.01362,-0.00157 -0.0198,-0.011024 -0.01463,-0.022389 -0.167271,-0.1180138 -0.167271,-0.1047941 0,0.00557 -0.01777,-0.00643 -0.03949,-0.026671 -0.02172,-0.020238 -0.0465,-0.032463 -0.05507,-0.027168 -0.0086,0.0053 -0.01558,0.00276 -0.01558,-0.00564 0,-0.018255 -0.129338,-0.089844 -0.150457,-0.083278 -0.0081,0.00252 -0.01476,-0.00259 -0.01476,-0.011376 0,-0.01864 -0.525565,-0.2838755 -0.5625,-0.2838755 -0.01372,0 -0.02494,-0.00688 -0.02494,-0.015298 0,-0.00841 -0.0062,-0.013599 -0.01377,-0.011524 -0.0076,0.00208 -0.03957,-0.00999 -0.0711,-0.026804 -0.03153,-0.016818 -0.06251,-0.025401 -0.06884,-0.019072 -0.0063,0.00633 -0.01151,0.00276 -0.01151,-0.00792 0,-0.015837 -0.03845,-0.033324 -0.110146,-0.050097 -0.005,-0.00118 -0.02777,-0.012471 -0.05048,-0.02509 -0.02272,-0.012618 -0.04131,-0.018331 -0.04131,-0.012694 0,0.00564 -0.02065,-0.00328 -0.04589,-0.019823 -0.02524,-0.016539 -0.04589,-0.0248 -0.04589,-0.018358 0,0.00644 -0.01886,-6.48e-4 -0.04192,-0.015755 -0.02306,-0.015108 -0.0623,-0.031206 -0.0872,-0.035774 -0.0249,-0.00457 -0.04734,-0.00995 -0.04987,-0.011964 -0.0025,-0.00201 -0.01079,-0.00498 -0.01836,-0.0066 -0.0076,-0.00162 -0.03029,-0.011871 -0.05048,-0.02278 -0.04135,-0.022337 -0.255895,-0.094002 -0.312079,-0.1042421 -0.02019,-0.00368 -0.05911,-0.015891 -0.08649,-0.027133 -0.02738,-0.011243 -0.06868,-0.023041 -0.09179,-0.026218 -0.02311,-0.00318 -0.05027,-0.010674 -0.06037,-0.016659 -0.01711,-0.010142 -0.17528,-0.050288 -0.23184,-0.058844 -0.01384,-0.00209 -0.03343,-0.00869 -0.04352,-0.014648 -0.0191,-0.011278 -0.14558,-0.03747 -0.284865,-0.058991 -0.01532,-0.00237 -0.03694,-0.00992 -0.04804,-0.016775 -0.0111,-0.00686 -0.05639,-0.016859 -0.100644,-0.022222 -0.04426,-0.00536 -0.105248,-0.014438 -0.135538,-0.020166 -0.03029,-0.00573 -0.07573,-0.013885 -0.100967,-0.018127 -0.02524,-0.00424 -0.09133,-0.015945 -0.146861,-0.026007 -0.106329,-0.019265 -0.213002,-0.031142 -0.61498,-0.068473 -0.181353,-0.016842 -1.286287,-0.017688 -1.486965,-0.00114 -0.272159,0.022444 -0.366866,0.032098 -0.431404,0.043977 -0.03534,0.0065 -0.08903,0.014965 -0.119324,0.018801 -0.05416,0.00686 -0.10681,0.014949 -0.206582,0.031743 -0.02773,0.00467 -0.08359,0.012834 -0.124132,0.018146 -0.04054,0.00531 -0.110757,0.018823 -0.156039,0.030024 -0.04528,0.011201 -0.09886,0.023015 -0.119048,0.026255 -0.02019,0.00324 -0.03671,0.00763 -0.03671,0.00976 0,0.00548 -0.08559,0.019854 -0.1235528,0.020754 -0.01747,4.149e-4 -0.036322,0.00813 -0.041892,0.017141 -0.00557,0.00901 -0.021419,0.012055 -0.03522,0.00676 -0.013801,-0.0053 -0.030628,-6.7e-4 -0.037396,0.01028 -0.00677,0.01095 -0.0188,0.015894 -0.026738,0.010988 -0.018601,-0.011496 -0.3520786,0.079343 -0.3823066,0.1041393 -0.012621,0.010353 -0.022947,0.014127 -0.022947,0.00839 0,-0.014488 -0.1875346,0.042141 -0.2157018,0.065135 -0.012621,0.010303 -0.022947,0.012579 -0.022947,0.00506 0,-0.00752 -0.012391,-0.00339 -0.027536,0.00918 -0.015145,0.012569 -0.027536,0.0167 -0.027536,0.00918 0,-0.00752 -0.010326,-0.0051 -0.022947,0.00537 -0.012621,0.010474 -0.027077,0.018095 -0.032126,0.016935 -0.025506,-0.00586 -0.183576,0.049051 -0.183576,0.063774 0,0.00938 -0.00628,0.013176 -0.01395,0.00843 -0.00767,-0.00474 -0.042781,0.00425 -0.07802,0.019985 -0.035238,0.015734 -0.080233,0.031726 -0.099988,0.035538 -0.019755,0.00381 -0.042346,0.017049 -0.050202,0.029415 -0.00786,0.012366 -0.014411,0.015997 -0.014565,0.00807 -1.468e-4,-0.00793 -0.018868,-0.00419 -0.041586,0.0083 -0.022717,0.01249 -0.050151,0.024224 -0.060964,0.026075 -0.044313,0.00759 -0.2934106,0.1241275 -0.3059074,0.1431205 -0.00742,0.011274 -0.013614,0.014234 -0.013768,0.00658 C 8.1852353,2.8202174 7.7744098,3.024876 7.766107,3.046842 7.762717,3.055802 7.752394,3.058463 7.74316,3.052752 7.73393,3.047042 7.72637,3.051122 7.72637,3.061812 c 0,0.010693 -0.0062,0.017743 -0.013768,0.015667 -0.018165,-0.00498 -0.1391309,0.059115 -0.1535026,0.081334 -0.00618,0.00955 -0.018569,0.017777 -0.027536,0.018281 -0.031259,0.00176 -0.098914,0.03867 -0.098914,0.053967 0,0.00848 -0.011801,0.015411 -0.026225,0.015411 -0.014424,0 -0.038912,0.012686 -0.054417,0.028192 -0.015506,0.015506 -0.034683,0.02865 -0.042616,0.02921 -0.025615,0.00181 -0.1153906,0.060204 -0.1153906,0.075059 0,0.00792 -0.00985,0.014399 -0.021883,0.014399 -0.031051,0 -0.3085538,0.184668 -0.3085538,0.2053315 0,0.00942 -0.00684,0.012896 -0.01521,0.00773 -0.00837,-0.00517 -0.041919,0.014995 -0.074564,0.044811 -0.032644,0.029816 -0.065898,0.054211 -0.073897,0.054211 -0.008,0 -0.036828,0.020652 -0.064064,0.045894 -0.027236,0.025242 -0.055741,0.045894 -0.063345,0.045894 -0.0076,0 -0.04539,0.028913 -0.083971,0.064252 -0.03858,0.035338 -0.077299,0.064252 -0.086041,0.064252 -0.00874,0 -0.026213,0.016522 -0.038824,0.036715 -0.012611,0.020193 -0.033263,0.036715 -0.045894,0.036715 -0.012631,0 -0.033283,0.016522 -0.045894,0.036715 -0.012611,0.020193 -0.032599,0.036715 -0.044418,0.036715 -0.011819,0 -0.042342,0.024783 -0.06783,0.055073 -0.025487,0.03029 -0.054279,0.055073 -0.063982,0.055073 -0.0097,0 -0.043027,0.028913 -0.074055,0.064252 -0.031027,0.035338 -0.063056,0.064252 -0.071173,0.064252 -0.00812,0 -0.080459,0.066087 -0.1607592,0.1468608 -0.0803,0.080773 -0.1503645,0.1468608 -0.1556995,0.1468608 -0.00534,0 -0.3221627,-0.3125438 -0.7040614,-0.6945416 z"
     id="path1627"
     inkscape:connector-curvature="0" />
  <path
     style="fill:#0e0e13;fill-opacity:1;fill-rule:nonzero;stroke-width:0.0183576"
     d="M 4.938011,3.9001758 4.2518005,3.2137823 4.3873747,3.0880375 C 4.4619406,3.0188778 4.5931668,2.8954353 4.6789886,2.8137204 4.7648104,2.7320058 4.8887242,2.6251295 4.9543526,2.5762177 5.0199811,2.5273059 5.1645472,2.4120787 5.2756107,2.3201574 5.3866742,2.2282363 5.510588,2.1306682 5.5509747,2.1033396 6.1335449,1.7091312 6.1943176,1.6690603 6.2577423,1.637328 6.2728874,1.6297508 6.3194665,1.6004798 6.3612517,1.5722815 6.4030367,1.5440831 6.4856459,1.4957128 6.5448277,1.4647918 6.6040093,1.4338708 6.7185181,1.3724832 6.7992916,1.3283749 7.0463515,1.193462 7.484167,0.98280547 7.7355292,0.87790078 8.0878283,0.73087064 8.5625105,0.55881284 8.7910913,0.49529189 8.8264297,0.4854716 8.954474,0.44874768 9.0756341,0.41368316 9.1967943,0.37861863 9.3620127,0.33577735 9.4427861,0.3184803 9.5235596,0.30118326 9.6226906,0.27962892 9.6630774,0.2705818 10.133841,0.1651249 10.671922,0.08842886 11.202081,0.05121809 c 0.48153,-0.03379759 1.622732,-0.01348764 2.040729,0.03631879 0.808316,0.09631508 1.590863,0.27328901 2.322236,0.52517704 0.136305,0.046944 0.26435,0.0897173 0.284543,0.0950517 0.02019,0.005334 0.07802,0.0286024 0.128503,0.0517066 0.05048,0.0231042 0.170267,0.0724993 0.266185,0.10976667 0.180713,0.0702127 0.995479,0.47188321 1.177629,0.58055751 0.05704,0.034031 0.131388,0.078312 0.165218,0.098402 0.194552,0.1155344 0.265147,0.1595392 0.447512,0.2789531 0.110793,0.072547 0.242746,0.1643961 0.293229,0.204108 0.05048,0.039712 0.112436,0.083617 0.137672,0.097565 0.02524,0.013949 0.09132,0.06329 0.146861,0.1096463 0.05554,0.046356 0.114795,0.091791 0.131683,0.1009668 0.06224,0.033814 0.508805,0.4274907 0.741411,0.6536022 l 0.239746,0.2330525 -0.683481,0.6832993 -0.683482,0.6832993 -0.116172,-0.098987 C 18.178209,4.439262 18.058982,4.3321511 17.977155,4.2556806 17.804839,4.0946445 17.441179,3.7978799 17.281482,3.6879771 17.151893,3.5987948 16.81869,3.3756231 16.766838,3.3432816 16.310901,3.0588963 15.867225,2.8354758 15.289682,2.5994353 15.26444,2.589119 15.227266,2.5737466 15.207073,2.5652742 15.12933,2.5326558 14.994788,2.4868129 14.720597,2.3995157 14.46879,2.3193453 14.303225,2.2758416 13.857789,2.1728057 13.686263,2.1331291 13.335959,2.0767547 13.049657,2.0427531 12.712774,2.0027446 11.686077,1.9867281 11.27775,2.0151115 10.974609,2.0361835 10.365397,2.1203235 10.141487,2.1720444 9.6362701,2.2887443 9.5185746,2.3210461 9.1031705,2.4570121 c -0.4488,0.1468967 -1.035043,0.4032966 -1.4227141,0.6222397 -0.070677,0.039916 -0.1532859,0.08559 -0.183576,0.1014975 -0.03029,0.015908 -0.079855,0.045371 -0.1101456,0.065475 -0.03029,0.020103 -0.067464,0.042145 -0.082609,0.048981 -0.028535,0.01288 -0.047961,0.025531 -0.3642862,0.2372255 C 6.6900323,3.6996098 6.6814398,3.7055344 6.5966453,3.7690706 6.426984,3.8961971 6.0649247,4.20045 5.8044669,4.4347699 c -0.092803,0.08349 -0.1713231,0.1517995 -0.174489,0.1517995 -0.00317,0 -0.3145511,-0.3088771 -0.6919669,-0.6863936 z"
     id="path1629"
     inkscape:connector-curvature="0" />
  <path
     style="fill:#0e0e13;fill-opacity:1;fill-rule:nonzero;stroke-width:0.03560997"
     d="M 7.7513788,6.7251196 7.0751408,6.0476246 7.2857558,5.8615778 C 7.8832059,5.3338201 8.3418131,5.0251574 8.9980793,4.7091093 11.203563,3.6469812 13.881562,3.8463469 15.904345,5.2232516 c 0.323934,0.2205013 0.733334,0.549737 0.891118,0.7166279 L 16.901092,6.0516058 16.220937,6.731761 15.540781,7.4119162 15.258449,7.1821095 C 14.888009,6.8805871 14.722263,6.7686945 14.35738,6.5738089 13.956869,6.3598942 13.459975,6.178916 13.002658,6.0803937 12.480235,5.967845 11.551289,5.9676056 11.021138,6.0798831 10.271535,6.2386371 9.5687169,6.5531284 8.9924534,6.9876621 8.7996928,7.133014 8.6114532,7.2858404 8.574143,7.3272764 c -0.03731,0.041436 -0.085542,0.075338 -0.1071814,0.075338 -0.02164,0 -0.3436519,-0.3048728 -0.7155828,-0.6774948 z"
     id="path2237"
     inkscape:connector-curvature="0" />
  <path
     style="fill:#0000ff;fill-opacity:1;fill-rule:nonzero;stroke-width:0.03560997"
     d="M 7.7865987,6.7272621 C 7.4349213,6.3754036 7.1423875,6.073126 7.1365236,6.0555341 7.1262562,6.0247322 7.4361348,5.7404975 7.7695353,5.474907 8.2693791,5.0767259 9.1420742,4.6162776 9.8158065,4.3952606 11.262318,3.9207345 12.900906,3.9400473 14.339575,4.448579 c 0.853568,0.3017139 1.804605,0.8801 2.396396,1.4574014 l 0.152967,0.1492219 -0.661604,0.6559012 c -0.363883,0.3607457 -0.673744,0.6559012 -0.688581,0.6559012 -0.01484,0 -0.202586,-0.1367907 -0.417222,-0.3039793 -0.61093,-0.4758791 -1.394625,-0.8391193 -2.165072,-1.0035039 -0.408037,-0.08706 -1.487527,-0.085919 -1.904963,0.00201 -0.857483,0.180627 -1.716575,0.5982343 -2.3501067,1.1423939 -0.104423,0.089692 -0.2091014,0.1630766 -0.2326187,0.1630766 -0.023517,0 -0.3304946,-0.2878842 -0.6821719,-0.6397426 z"
     id="path2239"
     inkscape:connector-curvature="0" />
  <path
     style="fill:#0000ff;fill-opacity:1;fill-rule:nonzero;stroke-width:0.03560997"
     d="M 7.8038774,6.7071191 C 7.4618287,6.3637675 7.1752307,6.0752635 7.1669928,6.0659992 7.1212363,6.014541 7.7326676,5.4989958 8.1968549,5.1976425 9.7432414,4.193719 11.587826,3.8466073 13.415834,4.2155413 c 0.236191,0.047669 0.580717,0.1358077 0.765614,0.1958646 0.470357,0.1527776 1.226186,0.5264721 1.689356,0.8352458 0.376902,0.2512629 0.979274,0.7420599 0.979274,0.7978866 0,0.043235 -1.268144,1.2868564 -1.312232,1.2868564 -0.02198,0 -0.212094,-0.1278044 -0.422477,-0.2840098 C 14.494066,6.5860776 13.736293,6.229604 13.022006,6.0626194 12.667055,5.9796395 11.411484,5.9685462 11.063458,6.0453151 10.219844,6.2314028 9.4125976,6.6148728 8.7596117,7.139722 8.6284545,7.245142 8.499688,7.3313947 8.473464,7.3313947 c -0.026224,0 -0.327538,-0.280924 -0.6695866,-0.6242756 z"
     id="path2241"
     inkscape:connector-curvature="0" />
</svg>
