<?xml version="1.0" encoding="UTF-8" standalone="no"?>
<svg
   xmlns:dc="http://purl.org/dc/elements/1.1/"
   xmlns:cc="http://creativecommons.org/ns#"
   xmlns:rdf="http://www.w3.org/1999/02/22-rdf-syntax-ns#"
   xmlns:svg="http://www.w3.org/2000/svg"
   xmlns="http://www.w3.org/2000/svg"
   xmlns:sodipodi="http://sodipodi.sourceforge.net/DTD/sodipodi-0.dtd"
   xmlns:inkscape="http://www.inkscape.org/namespaces/inkscape"
   version="1.1"
   width="24"
   height="24"
   viewBox="0 0 24 24"
   id="svg865"
   sodipodi:docname="vnc-03.svg"
   inkscape:version="0.92.2 (5c3e80d, 2017-08-06)">
  <metadata
     id="metadata871">
    <rdf:RDF>
      <cc:Work
         rdf:about="">
        <dc:format>image/svg+xml</dc:format>
        <dc:type
           rdf:resource="http://purl.org/dc/dcmitype/StillImage" />
        <dc:title />
      </cc:Work>
    </rdf:RDF>
  </metadata>
  <defs
     id="defs869" />
  <sodipodi:namedview
     pagecolor="#ffffff"
     bordercolor="#666666"
     borderopacity="1"
     objecttolerance="10"
     gridtolerance="10"
     guidetolerance="10"
     inkscape:pageopacity="0"
     inkscape:pageshadow="2"
     inkscape:window-width="1276"
     inkscape:window-height="2121"
     id="namedview867"
     showgrid="false"
     inkscape:zoom="22.627417"
     inkscape:cx="8.7003396"
     inkscape:cy="15.172263"
     inkscape:window-x="4480"
     inkscape:window-y="37"
     inkscape:window-maximized="0"
     inkscape:current-layer="svg865" />
  <path
     d="M12,0C8.96,0 6.21,1.23 4.22,3.22L5.63,4.63C7.26,3 9.5,2 12,2C14.5,2 16.74,3 18.36,4.64L19.77,3.23C17.79,1.23 15.04,0 12,0M7.05,6.05L8.46,7.46C9.37,6.56 10.62,6 12,6C13.38,6 14.63,6.56 15.54,7.46L16.95,6.05C15.68,4.78 13.93,4 12,4C10.07,4 8.32,4.78 7.05,6.05M12,15A2,2 0 0,1 10,13A2,2 0 0,1 12,11A2,2 0 0,1 14,13A2,2 0 0,1 12,15M15,9H9A1,1 0 0,0 8,10V22A1,1 0 0,0 9,23H15A1,1 0 0,0 16,22V10A1,1 0 0,0 15,9Z"
     id="path863"
     style="fill-opacity:1;fill:#000000" />
  <path
     style="fill:#000000;fill-opacity:1;fill-rule:nonzero;stroke-width:0.01251956"
     d="M 7.7541353,6.7488146 7.0551462,6.0497421 7.2033165,5.9116572 C 8.375285,4.8194599 9.764243,4.1927424 11.364006,4.034295 c 0.304594,-0.030168 0.972402,-0.030168 1.276996,0 1.597783,0.1582513 3.03217,0.8090729 4.172183,1.8930367 l 0.126391,0.1201765 -0.69934,0.6994231 -0.699339,0.6994231 -0.09862,-0.09 C 14.70138,6.6802325 13.850194,6.2500607 12.912363,6.07779 12.579956,6.0167301 12.41048,6.0027296 12.002504,6.0026265 11.500692,6.0025 11.190588,6.0398584 10.744288,6.1542066 9.9425951,6.3596109 9.146423,6.7985305 8.5529713,7.3622515 c -0.049584,0.0471 -0.092334,0.085636 -0.095,0.085636 -0.00267,0 -0.3193925,-0.3145826 -0.703836,-0.6990729 z"
     id="path932"
     inkscape:connector-curvature="0" />
  <path
     style="fill:#1f80be;fill-opacity:1;fill-rule:nonzero;stroke-width:0.01251956"
     d="M 7.7541353,6.7488146 7.0551462,6.0497421 7.2033165,5.911202 C 8.283383,4.901333 9.580398,4.2782507 11.025978,4.0748064 c 0.366476,-0.051576 0.535356,-0.062346 0.976526,-0.062277 0.452565,7.1e-5 0.678854,0.016051 1.064163,0.07515 1.242895,0.1906343 2.417989,0.7176475 3.386541,1.5188163 0.137864,0.114039 0.482003,0.4270359 0.482003,0.4383857 0,0.00394 -0.314084,0.3210041 -0.697965,0.7045924 L 15.53928,7.4469063 15.414085,7.3326082 C 14.385076,6.3931693 13.049937,5.9187541 11.683255,6.0069323 10.527261,6.0815171 9.4358345,6.5484279 8.5891434,7.3305892 8.5193069,7.3951031 8.4601332,7.4478873 8.4576462,7.4478873 c -0.00249,0 -0.319067,-0.3145826 -0.7035109,-0.6990727 z"
     id="path934"
     inkscape:connector-curvature="0" />
  <path
     style="fill:#666666;fill-opacity:1;fill-rule:nonzero;stroke-width:0.01251956"
     d="M 18.243368,4.5176347 C 18.181471,4.4551553 18.049139,4.331544 17.949296,4.242943 16.607986,3.0526657 14.972983,2.3065618 13.191862,2.0719747 12.465347,1.9762871 11.647086,1.9717603 10.913302,2.0593689 9.3289069,2.2485348 7.8615721,2.8364607 6.5877934,3.7924967 6.2700784,4.030958 6.0051549,4.2567283 5.752016,4.5047542 L 5.6298536,4.624449 4.9291695,3.9238486 4.2284854,3.2232483 4.2625995,3.1868886 C 4.3318355,3.1130951 4.6710986,2.8007256 4.8319515,2.6626697 5.5472388,2.0487568 6.2981774,1.5525176 7.1386541,1.1383421 8.4716918,0.4814394 9.8683467,0.11391962 11.372912,0.02412734 c 0.275019,-0.01641312 0.987221,-0.01650559 1.25557,-1.6302e-4 0.727898,0.04432927 1.377648,0.14342988 2.056375,0.31364054 1.846877,0.4631587 3.543909,1.40722164 4.91081,2.73189344 l 0.162705,0.1576788 -0.701233,0.7020283 -0.701233,0.7020282 z"
     id="path936"
     inkscape:connector-curvature="0" />
  <path
     style="fill:#666666;fill-opacity:1;fill-rule:nonzero;stroke-width:0.01251956"
     d="M 7.7593655,6.7415253 7.0656074,6.0476828 7.1647286,5.9549813 C 7.7217653,5.4340222 8.2464424,5.0651943 8.885133,4.745603 9.4369122,4.4695009 9.9804878,4.2816399 10.59195,4.1557228 c 0.259273,-0.053391 0.664094,-0.1094509 0.916031,-0.1268514 0.273894,-0.018917 0.972216,-0.00776 1.220657,0.019504 1.554047,0.1705348 2.952135,0.8166528 4.087637,1.8890763 L 16.928951,6.0438685 16.232787,6.7409333 15.536622,7.437998 15.414631,7.3271876 C 14.687317,6.6665328 13.804679,6.2311116 12.856716,6.0653214 12.537218,6.0094441 12.286218,5.9921495 11.902347,5.9995627 11.188089,6.0133561 10.592641,6.1451563 9.943036,6.4332488 9.431262,6.6602148 9.0164871,6.937172 8.5283255,7.3778915 c -0.034429,0.031083 -0.065434,0.056731 -0.0689,0.056995 -0.00347,2.641e-4 -0.3184932,-0.3117481 -0.70006,-0.6933612 z"
     id="path957"
     inkscape:connector-curvature="0" />
  <path
     style="fill:#2a66b0;fill-opacity:1;fill-rule:nonzero;stroke-width:0.01251956"
     d="m 18.281562,4.5438525 c -0.0408,-0.041231 -0.07608,-0.073069 -0.0784,-0.07075 -0.0023,0.00232 -0.04443,-0.037259 -0.09358,-0.087949 -0.04915,-0.050691 -0.09163,-0.089904 -0.09439,-0.087141 -0.0028,0.00276 -0.02799,-0.019893 -0.05607,-0.050349 -0.02807,-0.030456 -0.05284,-0.053578 -0.05504,-0.051382 -0.0022,0.0022 -0.04187,-0.031367 -0.08817,-0.074584 -0.0463,-0.043217 -0.08668,-0.076075 -0.08974,-0.073018 -0.0031,0.00306 -0.01672,-0.00863 -0.03036,-0.025976 -0.01364,-0.017344 -0.02788,-0.028456 -0.03164,-0.024694 -0.0038,0.00376 -0.01392,-0.00326 -0.02256,-0.015605 -0.01856,-0.026501 -0.318293,-0.2580247 -0.318293,-0.2458617 0,0.00458 -0.01108,-0.00497 -0.02462,-0.021228 -0.01354,-0.016256 -0.02481,-0.025887 -0.02504,-0.021403 -2.25e-4,0.00448 -0.01789,-0.00817 -0.03925,-0.028121 -0.02136,-0.019951 -0.04389,-0.033146 -0.05008,-0.029323 -0.0062,0.00382 -0.01125,0.00194 -0.01125,-0.00419 0,-0.016043 -0.107815,-0.091187 -0.117268,-0.081732 -0.0044,0.00436 -0.0079,0.00215 -0.0079,-0.00491 0,-0.014784 -0.13752,-0.1091428 -0.138095,-0.094754 -2.13e-4,0.00523 -0.0062,-4.607e-4 -0.01329,-0.012655 -0.0071,-0.012195 -0.0182,-0.018905 -0.02466,-0.014911 -0.0065,0.00399 -0.01175,0.00183 -0.01175,-0.00481 0,-0.00664 -0.02676,-0.027752 -0.05947,-0.046919 -0.03271,-0.019168 -0.05947,-0.032637 -0.05947,-0.029931 0,0.00271 -0.01127,-0.00473 -0.02504,-0.01652 -0.01377,-0.011792 -0.02978,-0.021018 -0.03557,-0.020503 -0.0058,5.146e-4 -0.01706,-0.00758 -0.02504,-0.017989 -0.008,-0.010409 -0.02249,-0.020643 -0.03225,-0.022743 -0.0098,-0.0021 -0.02827,-0.013883 -0.04115,-0.026184 -0.01288,-0.012301 -0.02884,-0.019011 -0.03547,-0.014911 -0.0066,0.0041 -0.01206,0.00255 -0.01206,-0.00346 0,-0.013106 -0.149503,-0.09832 -0.164657,-0.093852 -0.0058,0.00172 -0.01062,-0.00147 -0.01062,-0.00708 0,-0.0148 -0.09495,-0.065938 -0.104567,-0.056319 -0.0045,0.00446 -0.0081,0.0012 -0.0081,-0.00724 0,-0.00844 -0.0056,-0.011863 -0.01252,-0.00761 -0.0069,0.00426 -0.01252,0.00228 -0.01252,-0.00438 0,-0.015819 -0.400696,-0.2161423 -0.414846,-0.2073973 -0.006,0.00368 -0.01082,3.876e-4 -0.01082,-0.00731 0,-0.0077 -0.0056,-0.010515 -0.01252,-0.00626 -0.0069,0.00426 -0.01252,0.00279 -0.01252,-0.00326 0,-0.01055 -0.161509,-0.085745 -0.200313,-0.093261 -0.01033,-0.002 -0.02165,-0.00741 -0.02516,-0.012023 -0.01058,-0.013903 -0.137582,-0.06082 -0.137789,-0.0509 -10e-5,0.00506 -0.0043,0.00319 -0.0094,-0.00417 -0.01177,-0.01712 -0.115551,-0.058331 -0.115806,-0.045985 -1e-4,0.00511 -0.0043,0.0032 -0.0094,-0.00423 -0.01238,-0.01819 -0.178995,-0.081371 -0.192529,-0.073006 -0.0059,0.00364 -0.01072,0.00177 -0.01072,-0.00417 0,-0.00868 -0.136121,-0.059147 -0.193125,-0.0716 -0.0074,-0.00162 -0.0219,-0.00656 -0.03223,-0.010996 -0.06369,-0.027327 -0.205172,-0.069316 -0.214382,-0.063624 -0.006,0.00373 -0.01097,0.00211 -0.01097,-0.00359 0,-0.00966 -0.195933,-0.069128 -0.238091,-0.072259 -0.01045,-7.762e-4 -0.02529,-0.0053 -0.03298,-0.01005 -0.02324,-0.014362 -0.270096,-0.071286 -0.280706,-0.064729 -0.0054,0.00336 -0.01365,-6.3e-6 -0.01827,-0.00747 -0.0046,-0.00747 -0.01609,-0.010622 -0.0255,-0.00701 -0.0094,0.00361 -0.02061,9.089e-4 -0.02488,-0.00601 -0.0043,-0.00691 -0.01713,-0.011035 -0.02857,-0.00916 -0.01144,0.00188 -0.02772,-9.265e-4 -0.03618,-0.00624 -0.0085,-0.00531 -0.03381,-0.011559 -0.05634,-0.013889 -0.02252,-0.00233 -0.05106,-0.0084 -0.0634,-0.013491 -0.01235,-0.00509 -0.02591,-0.00579 -0.03015,-0.00156 -0.0042,0.00423 -0.01457,0.00199 -0.02297,-0.00498 -0.0084,-0.00697 -0.03991,-0.0148 -0.07001,-0.017397 -0.03011,-0.0026 -0.06319,-0.00764 -0.07352,-0.011204 -0.01033,-0.00357 -0.02723,-0.00671 -0.03756,-0.00698 -0.01033,-2.729e-4 -0.04695,-0.00655 -0.08138,-0.013944 -0.03443,-0.0074 -0.09077,-0.016683 -0.125196,-0.020637 -0.03443,-0.00395 -0.08232,-0.00993 -0.106416,-0.013277 -0.0241,-0.00335 -0.06635,-0.0089 -0.0939,-0.012329 -0.02754,-0.00343 -0.07261,-0.00912 -0.100157,-0.012639 -0.665947,-0.085074 -1.593786,-0.079403 -2.256689,0.013795 -0.13584,0.019098 -0.196953,0.028203 -0.253483,0.037766 -0.0241,0.00408 -0.05706,0.00737 -0.07324,0.00731 -0.01618,-5.01e-5 -0.03538,0.00358 -0.04265,0.00808 -0.0073,0.0045 -0.03911,0.010398 -0.07073,0.013115 -0.03163,0.00272 -0.06242,0.00985 -0.06842,0.015849 -0.006,0.006 -0.01875,0.0079 -0.02833,0.00423 -0.0096,-0.00368 -0.0249,-4.67e-4 -0.03406,0.00713 -0.0092,0.0076 -0.01947,0.010986 -0.02292,0.00753 -0.0085,-0.00851 -0.200766,0.031469 -0.217921,0.045319 -0.00752,0.00607 -0.016726,0.00798 -0.020459,0.00425 -0.0063,-0.0063 -0.1928543,0.035947 -0.2350397,0.053229 -0.010329,0.00423 -0.024413,0.00841 -0.031299,0.0093 -0.063202,0.00809 -0.1189359,0.024002 -0.1189359,0.033956 0,0.00669 -0.0048,0.00919 -0.010664,0.00557 -0.011077,-0.00685 -0.153602,0.029385 -0.1646097,0.041846 -0.00344,0.0039 -0.011894,0.00738 -0.018779,0.00774 -0.037692,0.00196 -0.1064162,0.022401 -0.1064162,0.031647 0,0.0059 -0.00845,0.00749 -0.018779,0.00353 -0.010329,-0.00396 -0.018779,-0.00115 -0.018779,0.00626 0,0.00741 -0.00845,0.010223 -0.018779,0.00626 -0.010329,-0.00396 -0.018779,-6.372e-4 -0.018779,0.00739 0,0.00803 -0.0049,0.01157 -0.010887,0.00787 -0.013017,-0.00805 -0.1689369,0.042514 -0.1745849,0.056611 -0.00217,0.00541 -0.012026,0.00673 -0.021909,0.00294 -0.00988,-0.00379 -0.01797,-8.363e-4 -0.01797,0.00657 0,0.00741 -0.00845,0.010223 -0.018779,0.00626 -0.010329,-0.00396 -0.018779,-6.373e-4 -0.018779,0.00739 0,0.00803 -0.00521,0.011377 -0.011581,0.00744 -0.010626,-0.00657 -0.073904,0.015196 -0.088575,0.030464 -0.00344,0.00358 -0.011894,0.00683 -0.018779,0.00721 -0.031145,0.00174 -0.081377,0.02192 -0.081377,0.032697 0,0.00655 -0.00492,0.00886 -0.010942,0.00514 -0.012972,-0.00802 -0.1688235,0.05307 -0.1745303,0.068409 -0.00217,0.00582 -0.011299,0.00776 -0.020295,0.00431 -0.009,-0.00345 -0.025332,0.0027 -0.036303,0.01367 -0.010971,0.010971 -0.022965,0.019745 -0.026653,0.019499 -0.030254,-0.00202 -0.044799,0.00171 -0.059319,0.015202 -0.00926,0.00861 -0.025158,0.01725 -0.035323,0.019207 -0.034277,0.0066 -0.087339,0.030713 -0.087339,0.039694 0,0.0049 -0.00827,0.00891 -0.018369,0.00891 -0.024173,0 -0.1193465,0.043115 -0.1193465,0.054066 0,0.00469 -0.00753,0.00853 -0.01673,0.00853 -0.025738,0 -0.3588574,0.1688885 -0.3588574,0.1819375 0,0.00633 -0.00563,0.00802 -0.012519,0.00377 -0.00689,-0.00426 -0.01252,-8.326e-4 -0.01252,0.00761 0,0.00844 -0.00365,0.011692 -0.00812,0.00723 -0.010622,-0.010622 -0.1295983,0.054208 -0.1295983,0.070618 0,0.00694 -0.00365,0.00897 -0.00811,0.00451 -0.00991,-0.00991 -0.1045676,0.041742 -0.1045676,0.057058 0,0.00602 -0.00543,0.0076 -0.012063,0.0035 -0.00663,-0.0041 -0.022597,0.00261 -0.035472,0.014911 -0.012875,0.012301 -0.03139,0.024084 -0.041145,0.026184 -0.00975,0.0021 -0.025021,0.013367 -0.033925,0.025039 -0.0089,0.011672 -0.019206,0.019024 -0.022894,0.016339 -0.010169,-0.0074 -0.1048927,0.048605 -0.1048927,0.062021 0,0.00645 -0.00423,0.01056 -0.00939,0.00914 -0.016718,-0.00458 -0.090767,0.040336 -0.090767,0.05506 0,0.00786 -0.00345,0.01083 -0.00768,0.00661 -0.00844,-0.00844 -0.2652563,0.1583349 -0.2885233,0.1873743 -0.00798,0.00996 -0.018223,0.017187 -0.022762,0.01606 -0.014522,-0.00361 -0.1567818,0.1015989 -0.1567818,0.1159445 0,0.00759 -0.00346,0.01035 -0.00768,0.00613 -0.00941,-0.00941 -0.142555,0.089498 -0.142555,0.1059061 0,0.00646 -0.00525,0.00851 -0.011663,0.00455 -0.00641,-0.00396 -0.020608,0.00556 -0.03154,0.02117 -0.010932,0.015608 -0.021805,0.025562 -0.024161,0.022119 -0.012635,-0.018464 -0.5568291,0.4466034 -0.6804395,0.5815024 -0.041502,0.045293 -0.096788,0.096824 -0.1228561,0.1145146 L 5.6259184,4.6079939 4.9324934,3.9152646 4.2390683,3.2225352 4.399764,3.0660407 C 5.4017325,2.090267 6.7130533,1.2566097 8.0525822,0.74380322 c 0.1032863,-0.0395407 0.189683,-0.0769101 0.1919926,-0.0830431 0.00231,-0.006133 0.00862,-0.00842 0.014017,-0.005083 0.012072,0.007461 0.1633135,-0.0425524 0.1633259,-0.0540097 4.8e-6,-0.004532 0.015325,-0.00913 0.034044,-0.0102167 0.01872,-0.001087 0.035981,-0.007813 0.038359,-0.0149461 0.00238,-0.007133 0.01241,-0.009867 0.022294,-0.006074 0.00988,0.003793 0.017971,8.3618e-4 0.017971,-0.00657 0,-0.007406 0.00845,-0.0102233 0.018779,-0.00626 0.010329,0.003963 0.018779,6.3724e-4 0.018779,-0.007392 0,-0.008029 0.00468,-0.0117085 0.010389,-0.008177 0.011266,0.006963 0.1796639,-0.040336 0.1899238,-0.0533444 0.00344,-0.004365 0.011894,-0.008048 0.018779,-0.008183 0.038324,-7.5417e-4 0.1064163,-0.0214595 0.1064163,-0.0323587 0,-0.00698 0.00453,-0.009892 0.010063,-0.006472 0.015176,0.009379 0.1652106,-0.0311054 0.1652106,-0.04458 0,-0.006445 0.00529,-0.008449 0.011754,-0.004454 0.013323,0.008234 0.1677799,-0.031517 0.1735102,-0.0446546 0.00205,-0.004704 0.014728,-0.005676 0.028169,-0.002161 0.014004,0.003662 0.024439,1.0642e-4 0.024439,-0.008328 0,-0.008095 0.00496,-0.0116547 0.011017,-0.00791 0.011415,0.007055 0.3034167,-0.0555942 0.3144919,-0.067474 0.00344,-0.003693 0.028795,-0.008504 0.056338,-0.0106909 0.027543,-0.002187 0.051683,-0.00841 0.053645,-0.0138298 0.00196,-0.005419 0.017454,-0.007199 0.034429,-0.003954 0.016974,0.003245 0.030862,3.9036e-4 0.030862,-0.006343 0,-0.006734 0.014085,-0.009551 0.031299,-0.00626 0.017214,0.003291 0.031331,0.001101 0.03137,-0.004866 3.75e-5,-0.005967 0.022698,-0.0117023 0.050353,-0.012745 0.027655,-0.001043 0.060018,-0.006106 0.071917,-0.0112512 0.0119,-0.005145 0.034311,-0.008114 0.049803,-0.006598 0.01549,0.001517 0.02817,-0.003612 0.02817,-0.0113969 0,-0.007785 0.0055,-0.0107447 0.01226,-0.006577 0.0067,0.004167 0.103926,-0.006586 0.215962,-0.0238962 0.112036,-0.0173104 0.24173,-0.0352501 0.288209,-0.0398661 0.04648,-0.004616 0.08451,-0.01227279 0.08451,-0.01701509 0,-0.0047423 0.01683,-0.0061519 0.0374,-0.0031325 0.02057,0.0030194 0.04733,0.0013156 0.05947,-0.0037862 0.01213,-0.0051019 0.04601,-0.0081225 0.07527,-0.0067126 0.02927,0.0014099 0.0532,-0.0020874 0.05319,-0.0077717 -9e-6,-0.0056844 0.03098,-0.0084054 0.06886,-0.0060467 0.03796,0.0023636 0.06888,-0.0010261 0.06888,-0.0075519 0,-0.0066507 0.0272,-0.0092264 0.06207,-0.0058764 0.03414,0.0032803 0.07217,0.0018095 0.08451,-0.0032684 0.01234,-0.0050779 0.05756,-0.0082035 0.100496,-0.0069459 0.04293,0.0012576 0.08425,-0.0015415 0.09182,-0.0062203 0.0076,-0.0046787 0.287937,-0.0072933 0.623037,-0.0058101 0.653135,0.0028909 0.795315,0.0061759 0.815821,0.01884897 0.0072,0.0044371 0.04252,0.0069814 0.07853,0.0056541 0.03601,-0.0013273 0.07531,0.0016804 0.08733,0.0066838 0.01202,0.0050034 0.04442,0.0069458 0.07199,0.0043164 0.02757,-0.0026293 0.05013,1.915e-5 0.05013,0.0058855 0,0.0058663 0.02394,0.0095125 0.05321,0.0081026 0.02927,-0.0014099 0.06314,0.0016107 0.07527,0.0067126 0.01214,0.0051019 0.0389,0.0068057 0.05947,0.0037862 0.02057,-0.0030194 0.0374,-4.0102e-4 0.0374,0.0058187 0,0.0062197 0.02113,0.01012457 0.04695,0.0086774 0.02582,-0.0014472 0.0554,4.0315e-4 0.06573,0.0041118 0.02428,0.00872 0.47222,0.0760376 0.513302,0.0771411 0.01721,4.6234e-4 0.03411,0.00389 0.03756,0.007616 0.01057,0.0114392 0.350799,0.0759238 0.362484,0.0687023 0.006,-0.003727 0.01286,-0.001102 0.01517,0.005833 0.0023,0.006935 0.02674,0.0140128 0.05428,0.0157274 0.02754,0.001715 0.05289,0.006452 0.05633,0.0105277 0.0034,0.004076 0.07105,0.0231931 0.150235,0.0424835 0.07919,0.0192904 0.221836,0.0568885 0.317,0.0835512 0.09516,0.0266627 0.178262,0.0452408 0.184663,0.0412846 0.0064,-0.003956 0.01164,-0.002119 0.01164,0.004084 0,0.014099 0.09665,0.0439248 0.111864,0.0345212 0.0062,-0.003805 0.01308,-0.002116 0.01539,0.003752 0.0058,0.0146258 0.349349,0.12814624 0.362765,0.11985471 0.0059,-0.003658 0.01076,-8.137e-5 0.01076,0.007947 0,0.008029 0.0085,0.0113551 0.01878,0.007392 0.01033,-0.003963 0.01878,-0.002279 0.01878,0.003743 0,0.0140063 0.112204,0.0526319 0.126759,0.0436363 0.006,-0.003724 0.01096,-0.001356 0.01096,0.005262 0,0.0143075 0.0736,0.0419358 0.08801,0.0330345 0.0055,-0.003403 0.0119,-0.001049 0.01421,0.005231 0.0058,0.0158113 0.286847,0.12733824 0.300153,0.11911475 0.0059,-0.003663 0.01078,-0.001348 0.01078,0.005144 0,0.011448 0.131279,0.0710505 0.156494,0.0710505 0.0069,0 0.01534,0.003565 0.01878,0.007923 0.01254,0.0158764 0.253614,0.12301854 0.263309,0.11702624 0.0055,-0.00339 0.01187,-0.00127 0.01418,0.00471 0.0023,0.00599 0.105606,0.062111 0.229551,0.1247248 1.001738,0.506055 1.893436,1.140806 2.686495,1.9123654 l 0.145024,0.1410926 -0.696102,0.696019 -0.696103,0.696019 z"
     id="path959"
     inkscape:connector-curvature="0" />
  <path
     style="fill:#000080;fill-opacity:1;fill-rule:nonzero;stroke-width:0.04419417"
     d="M 4.9434403,3.9035605 4.256535,3.2106577 4.6598471,2.8459576 C 6.1771063,1.4739564 8.0862034,0.54748199 10.167586,0.17308183 c 0.487503,-0.08769214 0.700456,-0.0994202 1.811961,-0.09979065 1.382033,-4.6064e-4 1.75503,0.0395894 2.740039,0.29420817 1.752834,0.45309653 3.411627,1.35543585 4.684583,2.54828735 l 0.331456,0.3105986 -0.68501,0.6856505 -0.68501,0.6856503 L 17.967858,4.244279 C 17.481247,3.8119145 16.54484,3.1792575 15.99192,2.9092918 14.733979,2.2950961 13.427693,1.9953179 12.00927,1.9953179 c -1.335406,0 -2.3660667,0.2093178 -3.6143124,0.7340332 C 7.5936667,3.0661836 6.5926679,3.7109252 5.9433738,4.3084119 L 5.6303457,4.5964633 Z"
     id="path2229"
     inkscape:connector-curvature="0" />
  <path
     style="fill:#000000;fill-opacity:1;fill-rule:nonzero;stroke-width:0.04419417"
     d="M 8.6980402,22.925078 C 8.4428344,22.833109 8.2423954,22.657327 8.1281297,22.425276 L 8.0241688,22.214152 V 15.982774 9.7513954 L 8.122323,9.567845 C 8.2428382,9.3424791 8.4816479,9.1397769 8.7057439,9.0726361 c 0.2377306,-0.071226 6.3540701,-0.071226 6.5918011,0 0.236034,0.070718 0.45686,0.2666437 0.57817,0.5129777 l 0.103405,0.2099758 0.01197,6.0507004 c 0.0079,3.995391 -0.0034,6.133954 -0.03334,6.29579 -0.05888,0.318534 -0.212946,0.545463 -0.474822,0.699396 l -0.210912,0.123977 -3.204077,0.0097 c -2.5999334,0.0079 -3.2353437,-0.0016 -3.3698958,-0.05007 z M 12.35813,14.985124 c 0.521465,-0.09441 1.012108,-0.414606 1.303154,-0.850451 0.822615,-1.231876 0.113846,-2.880514 -1.344089,-3.126426 -1.209054,-0.203934 -2.3253364,0.752051 -2.3253364,1.99142 0,1.092398 0.8692384,1.987894 1.9685234,2.02799 0.07453,0.0027 0.253519,-0.01642 0.397748,-0.04253 z"
     id="path2231"
     inkscape:connector-curvature="0" />
  <path
     style="fill:#0000ff;fill-opacity:1;fill-rule:nonzero;stroke-width:0.04419417"
     d="M 7.7686262,6.7318655 7.0787235,6.0390848 7.4188636,5.7472751 C 9.4689867,3.9884536 12.2596,3.5428647 14.717117,4.5819327 c 0.733939,0.3103186 1.637997,0.9009254 2.055817,1.3430335 L 16.903836,6.0634773 16.226238,6.7421349 15.548641,7.4207925 15.205053,7.143399 C 14.406793,6.4989286 13.547349,6.1355624 12.522426,6.0092064 12.033561,5.9489374 11.199881,6.0122158 10.720013,6.146014 9.992312,6.3489141 9.2516375,6.7407405 8.7053876,7.2117773 L 8.4585288,7.4246461 Z"
     id="path2233"
     inkscape:connector-curvature="0" />
  <path
     style="fill:#0000ff;fill-opacity:1;fill-rule:nonzero;stroke-width:0.04419417"
     d="M 4.9424872,3.8827941 4.2914852,3.2106577 4.5889338,2.9318655 C 5.7469914,1.8464426 7.3534325,0.94672256 8.9837577,0.47045464 10.102117,0.14374771 10.330063,0.11705967 12.001644,0.11711799 c 1.381286,4.817e-5 1.542006,0.008043 1.99065,0.0990236 2.094678,0.42477921 3.895782,1.33220511 5.424389,2.73289571 L 19.708663,3.216584 19.026748,3.8974341 18.344834,4.578284 18.156346,4.3975552 C 17.628973,3.891892 16.609593,3.1977646 15.890732,2.8548284 14.630949,2.2538436 13.456827,1.9953179 11.987173,1.9953179 c -1.12394,0 -1.872948,0.1164777 -2.8517652,0.4434754 C 7.983811,2.8235123 6.8187098,3.5002351 5.9454793,4.2915915 5.7834431,4.4384352 5.6379578,4.5577589 5.6221786,4.5567552 5.6063994,4.555752 5.3005383,4.252469 4.9424872,3.8827941 Z"
     id="path2243"
     inkscape:connector-curvature="0" />
  <path
     style="fill:#000000;fill-opacity:1;fill-rule:nonzero;stroke-width:0.04419417"
     d="M 7.7865768,6.707482 7.11087,6.0307186 7.4570339,5.7427729 c 0.929505,-0.7731798 1.9777472,-1.2953498 3.0796261,-1.534081 1.51867,-0.3290323 3.133692,-0.129759 4.514382,0.5570176 0.536108,0.2666684 1.320536,0.7952547 1.590064,1.0714648 L 16.86115,6.0626734 16.199164,6.7228432 15.537178,7.3830131 15.139431,7.0752157 C 14.456937,6.5470666 13.667407,6.1965614 12.79714,6.0353741 12.242246,5.9325991 11.36982,5.970863 10.769155,6.1243201 10.068211,6.3033963 9.2637697,6.7292512 8.5967796,7.274332 l -0.134496,0.1099134 z"
     id="path2245"
     inkscape:connector-curvature="0" />
</svg>
